<?xml version="1.0"?><svg version="1.2" baseProfile="tiny-ps" viewBox="0 0 300 300" xmlns="http://www.w3.org/2000/svg" xmlns:xlink="http://www.w3.org/1999/xlink"><title>Zypher Cloud</title><g><g fill="#fdfefe" transform="matrix(.1 0 0 -.1 0 300)"><path d="M0 1500V0h3000v3000H0V1500z"/></g><g fill="#878e9a" transform="matrix(.1 0 0 -.1 0 300)"><path d="M0 1500V0h3000v3000H0V1500zm940 506c69-72 221-230 338-350l212-220V755l-345 345-345 345v695l8-1c4-1 63-61 132-133zm972-268 288-298V755l-340 340-340 340 1 355v355l51-55c28-30 181-189 340-352z"/></g><g fill="#6c7991" transform="matrix(.1 0 0 -.1 0 300)"><path d="M0 1500V0h1960v25l9-14 10-15 20 25c11 13 20 28 21 32 0 5 16 23 35 41l35 33v43h20v38l15 6 15 5v41h9c5 0 12-6 14-12l5-13 1 20 1 21 20 17 20 17v50h9c5 0 11 10 13 23l3 22 22 3 22 3 3 22 3 22 23 3 22 3v39h20v50h30v50h50v50h40v40h30v50h20v50h50v50h10c6 0 10 7 10 16v17l30 28c16 16 34 29 40 29h10v40h20v40h30v40h39l3 38 3 37 23 3 22 3v69h71l-6 10c-3 5-3 21 1 35l6 25h28v50h50v40h10c6 0 10 7 10 15s5 15 10 15h10v1610H0V1500zm1352 85 138-141V745l-345 346-345 347v714l207-214c114-117 269-276 345-353zm517 203 341-351V750h-7c-4 0-162 156-350 347l-343 348v695h9c5 0 162-158 350-352zm958-615c-13-12-7-23 13-23h20v30h-13c-8 0-17-3-20-7z"/></g><g fill="#516385" transform="matrix(.1 0 0 -.1 0 300)"><path d="M0 1500V0h1351l15 14 14 15v51l18 19c32 36 42 50 42 60 0 5 9 16 20 24s25 28 31 45c6 18 15 32 20 32h9v50h20v50l29 26 29 26 6 31 6 32 25 19 25 19v15c0 17 37 52 57 52h13v30h-25l12 8c6 4 13 16 15 27 1 11 18 34 36 51l32 31v43l23-1 22-1-17-5c-10-2-18-9-18-14v-9h40v15c0 8 4 15 9 15h8l6 39 5 40 40 40 41 41 18-3c10-1 24-6 31-10l12-8v7c0 4-115 122-255 264l-255 257v715l8-4c4-1 79-77 167-168 87-91 242-249 342-351l183-185 1-160c0-87 2-154 4-149 1 6 8 30 16 55 7 25 16 49 21 54 4 6 8 18 8 28v18l25 6 24 6 6 19c4 10 11 19 16 19 12 0 49 37 49 50 0 6 16 26 35 44 19 19 35 39 35 45s5 11 11 11c18 0 38 26 51 69 14 45 27 52 35 21 7-26 7-25 43 9l30 28v17c0 9 4 16 9 16s12 11 15 25c4 14 11 25 16 25h10l1 38 1 37 8-30 8-30 1 18 1 17h30v50h19c11 0 26 3 35 6l16 6v47l16 15c8 9 19 16 24 16s12 16 16 35l6 36 29 6 29 6v47h40v15c0 9 11 26 25 39l25 23v903H0V1500zm1362 75 127-130 1-340c1-187 1-344 1-350-1-5-156 145-346 335l-345 345v718l217-224c120-123 275-282 345-354z"/></g><g fill="#274c88" transform="matrix(.1 0 0 -.1 0 300)"><path d="M0 1500V0h936l17 53c10 28 21 63 24 77s14 33 25 43l18 18 13 46 12 45 12 5c7 3 13 13 13 22 0 26 23 71 37 71h11l41 82c22 46 43 96 47 111 10 42 50 121 68 136 9 7 16 22 16 32v19h10c6 0 10 6 11 13 0 6 13 23 30 35l30 24 15-6 16-6-30 37c-17 21-152 159-301 308l-271 270v720l108-110c59-60 213-218 341-350l233-240 9-23 9-23 1-192 2-192 7 57 7 58 13 15c7 8 9 15 5 15-5 0 2 8 13 19l22 18v43h31l5 14 6 15 14-6 14-5v38l-65 64-65 64v358c0 197 3 358 6 358s94-90 201-200 199-200 204-200 9 8 9 18v18l20 17c11 9 20 23 20 31s5 16 12 18l11 4-11 19-10 19 29 28c16 16 29 35 29 43v15h19c10 0 28 8 40 18l21 17 4 47c6 61 9 66 52 74l36 7 6 16c3 9 16 26 29 38s23 29 23 38c0 8 5 15 10 15 6 0 10 7 10 15v15h30v15c0 8 5 15 10 15h10v40h10c6 0 10 4 10 9s17 27 38 48c51 55 60 68 64 89l3 19 72 75c39 41 79 83 89 94l16 18-11 7-11 7 20 24c11 13 20 29 20 36 0 8 9 19 20 26s20 17 20 21c0 12 27 37 40 37h11l-6 10-6 10h15c9 0 16 5 16 10 0 6-4 10-8 10-5 0-9 7-9 15v14l9-5 8-5 10 26 10 26 10-6 10-6v41H0V1500z"/></g><g fill="#102d71" transform="matrix(.1 0 0 -.1 0 300)"><path d="M920 2989c0-15-59-73-82-81l-17-7-4 12-4 12-14-12-13-13h-52c-29 0-64-4-78-10l-26-10v-31l-41-39-41-39-8-33-8-33-1 28-1 27h-30v-41l-19 6-19 6-6-16c-3-8-3-21 0-29l6-14-21-21c-12-12-21-27-21-35s-11-23-25-34l-25-20v-42h-27l-8 1 3 22 4 22-13-12c-7-7-22-13-32-13h-19l6-15 6-15-20-20c-11-11-25-20-30-20-6 0-10-4-10-10 0-5 7-10 15-10h14l-5-15-6-15-11 7-10 6-15-19-14-19-5 13-5 12h-47l-3 53-3 52-18-3-18-3 2 13c1 7 1 19 0 26l-1 12H80c-25 0-25 9-2 26l17 13-22 1H51l-10 19-10 18 6 7 6 6H0l1-362v-363l9 23c5 12 19 32 30 44s20 25 20 28c0 7 28 41 65 81 8 9 15 21 15 28v12l-10-6-10-6v10c0 6 6 11 13 11h12l-15 10-15 10 20 1c11 1 25 1 31 0l12-1 6 25 6 25h40v40h10c15 0 12 17-7 36l-18 18 20-8c11-5 30-8 43-7l22 1v-32l-13 10-13 11-14-22c-8-12-15-28-16-34l-2-13h14c8 0 14-5 14-11v-10l9 5 9 6-5-20-5-20-9 6-9 5v-51h-29l5-15 6-15h-22v-47l-17-21c-10-11-25-29-35-40-9-11-18-28-20-39l-3-18-23-3-22-3v-39h20v-48l-16-6c-9-3-24-6-35-6H50v-27c-1-31-21-63-39-63H0V0h490v62l20 5 20 5-1 12c-1 6 2 25 6 43l7 32 13 5 12 4 7 46 7 46h19v41l15 5 15 6v88h20v50h20v100h28l7 88 8 87 8-20 8-20v47l1 47 9 5c5 4 11 3 14-1 2-5 2-3 1 4-2 6 6 23 17 37l20 26-6 20-6 20h33l-5 20-5 20 8 5c4 2 7 16 8 31v26l11 8c7 4 11 11 10 16-3 19 2 30 26 58 14 16 25 37 25 47v18l25 27 25 27-6 20-6 20 31-5 31-5v9c0 5-42 52-92 104-51 53-97 105-102 117l-8 22 6 334c3 184 8 336 9 338 2 1 88-83 192-187 104-105 193-190 198-190h8l-9 16-9 16 5 24c2 13 8 24 13 24s9 9 9 19c0 11 4 22 9 25 4 3 11 26 14 51 4 25 9 56 13 70l6 25h-152v9c0 5-14 11-31 15l-31 6 7 29c3 16 10 66 14 111l9 82 12 8 13 8 5 56 4 56h-19l-7 40-6 40 16 25 16 25-12 15-12 15 7 77c5 43 7 126 6 184l-3 107 11 6c6 4 11 16 11 27v19H920v-11zm-249-122c-1-12-15-9-19 4l-4 12 12-4c6-3 11-8 11-12zm-371-407c0-5-5-10-11-10h-10l6 10c3 6 8 10 11 10 2 0 4-4 4-10zm50 6c0-3-4-8-10-11l-10-6v10c0 6 5 11 10 11 6 0 10-2 10-4zm-79-100 14 8-14-18-14-17-8 13c-5 7-9 18-9 23v10l9-14 9-14 13 9zm59-6c-8-5-19-10-23-10h-8l6 10c3 6 14 10 23 10h17l-15-10zm-120-96v-15l-10 6-10 6 5 10c9 14 15 11 15-7zm-30-43c0-11-26-22-34-14-12 12-5 23 14 23 11 0 20-4 20-9zm-80-111c-8-6-11-10-6-10h8l-13-16-13-16-6 18-7 19 21 11c24 12 37 7 16-6zm1120-155c0-8-4-15-10-15-5 0-10 7-10 15s5 15 10 15c6 0 10-7 10-15zM220 2190c0-5 5-10 10-10 6 0 10 5 10 10 0 6-4 10-10 10-5 0-10-4-10-10zm-45-39-5-10 10-6 10-6v15c0 18-6 21-15 7zm-50-101-6-10h10c6 0 11 5 11 10 0 6-2 10-4 10-3 0-8-4-11-10zm-95-101v-10l10 6c6 3 10 8 10 11 0 2-4 4-10 4-5 0-10-5-10-11zm-28-39v-25l5 13c2 6 2 18 0 25l-5 12v-25zm-2-125v-17l11 4c14 5 14 21 0 26l-11 4v-17z"/></g></g></svg>
